<?xml version="1.0" encoding="UTF-8" standalone="no"?>
<svg
   height="40px"
   viewBox="0 -960 960 960"
   width="40px"
   fill="#e3e3e3"
   version="1.1"
   id="svg1"
   sodipodi:docname="bluetooth.svg"
   inkscape:version="1.4.2 (ebf0e940d0, 2025-05-08)"
   xmlns:inkscape="http://www.inkscape.org/namespaces/inkscape"
   xmlns:sodipodi="http://sodipodi.sourceforge.net/DTD/sodipodi-0.dtd"
   xmlns="http://www.w3.org/2000/svg"
   xmlns:svg="http://www.w3.org/2000/svg">
  <defs
     id="defs1" />
  <sodipodi:namedview
     id="namedview1"
     pagecolor="#ffffff"
     bordercolor="#000000"
     borderopacity="0.25"
     inkscape:showpageshadow="2"
     inkscape:pageopacity="0.0"
     inkscape:pagecheckerboard="0"
     inkscape:deskcolor="#d1d1d1"
     inkscape:zoom="20.725"
     inkscape:cx="19.975875"
     inkscape:cy="20"
     inkscape:window-width="1920"
     inkscape:window-height="1040"
     inkscape:window-x="0"
     inkscape:window-y="0"
     inkscape:window-maximized="1"
     inkscape:current-layer="svg1" />
  <path
     d="M 446.67,-136.33 V -400 l -167.34,167.33 c -6.44,6.44667 -14.21667,9.67 -23.33,9.67 -9.11333,0 -16.89,-3.22333 -23.33,-9.67 -6.44667,-6.44 -9.67,-14.21667 -9.67,-23.33 0,-9.11333 3.22333,-16.89 9.67,-23.33 L 433.33,-480 232.67,-680.67 c -6.44667,-6.44 -9.67,-14.21667 -9.67,-23.33 0,-9.11333 3.22333,-16.89 9.67,-23.33 6.44,-6.44667 14.21667,-9.67 23.33,-9.67 9.11333,0 16.89,3.22333 23.33,9.67 L 446.67,-560 v -263.67 c 0,-10.22 3.44333,-18.38667 10.33,-24.5 6.88667,-6.10667 14.55333,-9.16 23,-9.16 4,0 8,0.77667 12,2.33 4,1.55333 7.77667,4.11 11.33,7.67 l 172,172 c 3.56,3.55333 6.06,7.22 7.5,11 1.44667,3.77333 2.17,7.88333 2.17,12.33 0,4.44667 -0.72333,8.55667 -2.17,12.33 -1.44,3.78 -3.94,7.44667 -7.5,11 L 526.67,-480 675.33,-331.33 c 3.56,3.55333 6.06,7.22 7.5,11 1.44667,3.77333 2.17,7.88333 2.17,12.33 0,4.44667 -0.72333,8.55667 -2.17,12.33 -1.44,3.78 -3.94,7.44667 -7.5,11 l -172,172 c -3.55333,3.56 -7.33,6.11667 -11.33,7.67 -4,1.55333 -8,2.33 -12,2.33 -8.44667,0 -16.11333,-3.05333 -23,-9.16 -6.88667,-6.11333 -10.33,-14.28 -10.33,-24.5 z m 66.66,-423.67 92,-92 -92,-90 z m 0,342 92,-90 -92,-92 z"
     id="path1"
     sodipodi:nodetypes="sccscscccscsccscsscccscccccscccsscscccccccc" />
</svg>
