<?xml version="1.0" encoding="UTF-8" standalone="no"?>
<svg
   height="40px"
   viewBox="0 -960 960 960"
   width="40px"
   fill="#e3e3e3"
   version="1.1"
   id="svg1"
   sodipodi:docname="bluetooth_connected_overlay.svg"
   inkscape:version="1.4.2 (ebf0e940d0, 2025-05-08)"
   xmlns:inkscape="http://www.inkscape.org/namespaces/inkscape"
   xmlns:sodipodi="http://sodipodi.sourceforge.net/DTD/sodipodi-0.dtd"
   xmlns="http://www.w3.org/2000/svg"
   xmlns:svg="http://www.w3.org/2000/svg">
  <defs
     id="defs1" />
  <sodipodi:namedview
     id="namedview1"
     pagecolor="#ffffff"
     bordercolor="#000000"
     borderopacity="0.25"
     inkscape:showpageshadow="2"
     inkscape:pageopacity="0.0"
     inkscape:pagecheckerboard="0"
     inkscape:deskcolor="#d1d1d1"
     inkscape:zoom="20.725"
     inkscape:cx="19.975875"
     inkscape:cy="20"
     inkscape:window-width="1920"
     inkscape:window-height="1040"
     inkscape:window-x="0"
     inkscape:window-y="0"
     inkscape:window-maximized="1"
     inkscape:current-layer="svg1" />
  <path
     d="m 200,-428 c -14.44667,0 -26.83667,-5.05667 -37.17,-15.17 -10.33333,-10.10667 -15.5,-22.38333 -15.5,-36.83 0,-14.44667 5.16667,-26.94667 15.5,-37.5 10.33333,-10.55333 22.72333,-15.83 37.17,-15.83 14.44667,0 26.83667,5.27667 37.17,15.83 10.33333,10.55333 15.5,23.05333 15.5,37.5 0,14.44667 -5.16667,26.72333 -15.5,36.83 C 226.83667,-433.05667 214.44667,-428 200,-428 Z m 560,0 c -14.44667,0 -26.83667,-5.05667 -37.17,-15.17 -10.33333,-10.10667 -15.5,-22.38333 -15.5,-36.83 0,-14.44667 5.16667,-26.94667 15.5,-37.5 10.33333,-10.55333 22.72333,-15.83 37.17,-15.83 14.44667,0 26.83667,5.27667 37.17,15.83 10.33333,10.55333 15.5,23.05333 15.5,37.5 0,14.44667 -5.16667,26.72333 -15.5,36.83 C 786.83667,-433.05667 774.44667,-428 760,-428 Z"
     id="path1"
     sodipodi:nodetypes="scssssscsscssssscs" />
</svg>
