<?xml version="1.0" encoding="UTF-8" standalone="no"?>
<svg
   height="40px"
   viewBox="0 -960 960 960"
   width="40px"
   fill="#e3e3e3"
   version="1.1"
   id="svg1"
   sodipodi:docname="sun_overlay.svg"
   inkscape:version="1.4.2 (ebf0e940d0, 2025-05-08)"
   xmlns:inkscape="http://www.inkscape.org/namespaces/inkscape"
   xmlns:sodipodi="http://sodipodi.sourceforge.net/DTD/sodipodi-0.dtd"
   xmlns="http://www.w3.org/2000/svg"
   xmlns:svg="http://www.w3.org/2000/svg">
  <defs
     id="defs1" />
  <sodipodi:namedview
     id="namedview1"
     pagecolor="#ffffff"
     bordercolor="#000000"
     borderopacity="0.25"
     inkscape:showpageshadow="2"
     inkscape:pageopacity="0.0"
     inkscape:pagecheckerboard="0"
     inkscape:deskcolor="#d1d1d1"
     inkscape:zoom="20.725"
     inkscape:cx="19.975875"
     inkscape:cy="20"
     inkscape:window-width="1920"
     inkscape:window-height="1040"
     inkscape:window-x="0"
     inkscape:window-y="0"
     inkscape:window-maximized="1"
     inkscape:current-layer="svg1" />
  <path
     d="m 479.88,-766.67 c -9.47333,0 -17.37667,-3.19333 -23.71,-9.58 -6.33333,-6.38667 -9.5,-14.30333 -9.5,-23.75 v -86.67 c 0,-9.44 3.20333,-17.35667 9.61,-23.75 6.41333,-6.38667 14.36,-9.58 23.84,-9.58 9.47333,0 17.37667,3.19333 23.71,9.58 6.33333,6.39333 9.5,14.31 9.5,23.75 V -800 c 0,9.44667 -3.20333,17.36333 -9.61,23.75 -6.41333,6.38667 -14.36,9.58 -23.84,9.58 z m 202.79,84 c -6.44667,-6.44 -9.67,-14.18333 -9.67,-23.23 0,-9.04667 3.22333,-16.85667 9.67,-23.43 L 743.33,-791 c 6.7,-6.66667 14.65333,-10 23.86,-10 9.20667,0 17.14333,3.33333 23.81,10 6.44667,6.44667 9.67,14.22333 9.67,23.33 0,9.11333 -3.22333,16.89333 -9.67,23.34 l -61.67,61.66 c -6.44,6.44667 -14.21667,9.67 -23.33,9.67 -9.11333,0 -16.89,-3.22333 -23.33,-9.67 z m 117.33,236 c -9.44667,0 -17.36333,-3.20333 -23.75,-9.61 -6.38667,-6.41333 -9.58,-14.36 -9.58,-23.84 0,-9.47333 3.19333,-17.37667 9.58,-23.71 6.38667,-6.33333 14.30333,-9.5 23.75,-9.5 h 86.67 c 9.44,0 17.35667,3.20333 23.75,9.61 6.38667,6.41333 9.58,14.36 9.58,23.84 0,9.47333 -3.19333,17.37667 -9.58,23.71 -6.39333,6.33333 -14.31,9.5 -23.75,9.5 z M 479.88,-40 c -9.47333,0 -17.37667,-3.193333 -23.71,-9.58 -6.33333,-6.393333 -9.5,-14.31 -9.5,-23.75 V -160 c 0,-9.44667 3.20333,-17.36333 9.61,-23.75 6.41333,-6.38667 14.36,-9.58 23.84,-9.58 9.47333,0 17.37667,3.19333 23.71,9.58 6.33333,6.38667 9.5,14.30333 9.5,23.75 v 86.67 c 0,9.44 -3.20333,17.356667 -9.61,23.75 -6.41333,6.386667 -14.36,9.58 -23.84,9.58 z M 230.67,-682.67 169,-743.33 c -6.66667,-6.61333 -10,-14.6 -10,-23.96 0,-9.36 3.42,-17.26333 10.26,-23.71 6.27333,-6.44667 13.96333,-9.67 23.07,-9.67 9.11333,0 16.89333,3.22333 23.34,9.67 l 61.66,61.67 c 6.44667,6.44 9.67,14.21667 9.67,23.33 0,9.11333 -3.22333,16.89 -9.67,23.33 -6.78667,6 -14.70333,9 -23.75,9 -9.05333,0 -16.69,-3 -22.91,-9 z M 744,-169 682.67,-230.67 c -6.44667,-6.57333 -9.67,-14.38333 -9.67,-23.43 0,-9.04667 3.22333,-16.79 9.67,-23.23 6.10667,-6 13.74333,-9 22.91,-9 9.16667,0 17.08333,3 23.75,9 l 62.34,60.66 c 6.66667,6.44667 9.86,14.36 9.58,23.74 -0.27333,9.38 -3.44333,17.38 -9.51,24 -6.62667,6.62 -14.62667,9.93 -24,9.93 -9.38,0 -17.29333,-3.33333 -23.74,-10 z M 73.33,-446.67 c -9.44,0 -17.356667,-3.20333 -23.75,-9.61 -6.386667,-6.41333 -9.58,-14.36 -9.58,-23.84 0,-9.47333 3.193333,-17.37667 9.58,-23.71 6.393333,-6.33333 14.31,-9.5 23.75,-9.5 H 160 c 9.44667,0 17.36333,3.20333 23.75,9.61 6.38667,6.41333 9.58,14.36 9.58,23.84 0,9.47333 -3.19333,17.37667 -9.58,23.71 -6.38667,6.33333 -14.30333,9.5 -23.75,9.5 z M 169,-169.26 c -6.44667,-6.27333 -9.67,-13.96333 -9.67,-23.07 0,-9.11333 3.22333,-16.89333 9.67,-23.34 l 61.67,-61.66 c 6.10667,-6 13.74333,-9 22.91,-9 9.16667,0 17.08333,3.05333 23.75,9.16 6.66667,6.66667 10,14.58333 10,23.75 0,9.16667 -3.33333,17.08333 -10,23.75 L 216.67,-169 c -6.61333,6.66667 -14.6,10 -23.96,10 -9.36,0 -17.26333,-3.42 -23.71,-10.26 z"
     id="path1"
     sodipodi:nodetypes="sssscscsscscsccsssccscscsssscscssscsscsssscsccscsccscscccscsccccscscscsscsssscsccscsccsc" />
</svg>
