<?xml version="1.0" encoding="UTF-8" standalone="no"?>
<svg
   height="40px"
   viewBox="0 -960 960 960"
   width="40px"
   fill="#e3e3e3"
   version="1.1"
   id="svg1"
   sodipodi:docname="sun_layer_1.svg"
   inkscape:version="1.4.2 (ebf0e940d0, 2025-05-08)"
   xmlns:inkscape="http://www.inkscape.org/namespaces/inkscape"
   xmlns:sodipodi="http://sodipodi.sourceforge.net/DTD/sodipodi-0.dtd"
   xmlns="http://www.w3.org/2000/svg"
   xmlns:svg="http://www.w3.org/2000/svg">
  <defs
     id="defs1" />
  <sodipodi:namedview
     id="namedview1"
     pagecolor="#ffffff"
     bordercolor="#000000"
     borderopacity="0.25"
     inkscape:showpageshadow="2"
     inkscape:pageopacity="0.0"
     inkscape:pagecheckerboard="0"
     inkscape:deskcolor="#d1d1d1"
     inkscape:zoom="20.725"
     inkscape:cx="19.975875"
     inkscape:cy="20"
     inkscape:window-width="1920"
     inkscape:window-height="1040"
     inkscape:window-x="0"
     inkscape:window-y="0"
     inkscape:window-maximized="1"
     inkscape:current-layer="svg1" />
  <path
     d="m 480,-240 c -66.66667,0 -123.33333,-23.33333 -170,-70 -46.66667,-46.66667 -70,-103.33333 -70,-170 0,-66.66667 23.33333,-123.33333 70,-170 46.66667,-46.66667 103.33333,-70 170,-70 66.66667,0 123.33333,23.33333 170,70 46.66667,46.66667 70,103.33333 70,170 0,66.66667 -23.33333,123.33333 -70,170 -46.66667,46.66667 -103.33333,70 -170,70 z m 0,-66.67 c 48,0 88.89,-16.88667 122.67,-50.66 33.77333,-33.78 50.66,-74.67 50.66,-122.67 0,-48 -16.88667,-88.89 -50.66,-122.67 -33.78,-33.77333 -74.67,-50.66 -122.67,-50.66 -48,0 -88.89,16.88667 -122.67,50.66 -33.77333,33.78 -50.66,74.67 -50.66,122.67 0,48 16.88667,88.89 50.66,122.67 33.78,33.77333 74.67,50.66 122.67,50.66 z"
     id="path1"
     sodipodi:nodetypes="sssssssssscscscscs" />
</svg>
