<?xml version="1.0" encoding="UTF-8" standalone="no"?>
<svg
   height="40px"
   viewBox="0 -960 960 960"
   width="40px"
   fill="#e3e3e3"
   version="1.1"
   id="svg1"
   sodipodi:docname="pause_overlay.svg"
   inkscape:version="1.4.2 (ebf0e940d0, 2025-05-08)"
   xmlns:inkscape="http://www.inkscape.org/namespaces/inkscape"
   xmlns:sodipodi="http://sodipodi.sourceforge.net/DTD/sodipodi-0.dtd"
   xmlns="http://www.w3.org/2000/svg"
   xmlns:svg="http://www.w3.org/2000/svg">
  <defs
     id="defs1" />
  <sodipodi:namedview
     id="namedview1"
     pagecolor="#ffffff"
     bordercolor="#000000"
     borderopacity="0.25"
     inkscape:showpageshadow="2"
     inkscape:pageopacity="0.0"
     inkscape:pagecheckerboard="0"
     inkscape:deskcolor="#d1d1d1"
     inkscape:zoom="19.825"
     inkscape:cx="19.974779"
     inkscape:cy="20"
     inkscape:window-width="1920"
     inkscape:window-height="1004"
     inkscape:window-x="0"
     inkscape:window-y="0"
     inkscape:window-maximized="1"
     inkscape:current-layer="svg1" />
  <path
     d="m 400.12,-320 c 9.47333,0 17.37667,-3.19333 23.71,-9.58 6.33333,-6.39333 9.5,-14.31 9.5,-23.75 v -253.34 c 0,-9.44 -3.20333,-17.35667 -9.61,-23.75 -6.41333,-6.38667 -14.36,-9.58 -23.84,-9.58 -9.47333,0 -17.37667,3.19333 -23.71,9.58 -6.33333,6.39333 -9.5,14.31 -9.5,23.75 v 253.34 c 0,9.44 3.20333,17.35667 9.61,23.75 6.41333,6.38667 14.36,9.58 23.84,9.58 z m 160,0 c 9.47333,0 17.37667,-3.19333 23.71,-9.58 6.33333,-6.39333 9.5,-14.31 9.5,-23.75 v -253.34 c 0,-9.44 -3.20333,-17.35667 -9.61,-23.75 -6.41333,-6.38667 -14.36,-9.58 -23.84,-9.58 -9.47333,0 -17.37667,3.19333 -23.71,9.58 -6.33333,6.39333 -9.5,14.31 -9.5,23.75 v 253.34 c 0,9.44 3.20333,17.35667 9.61,23.75 6.41333,6.38667 14.36,9.58 23.84,9.58 z"
     id="path1"
     sodipodi:nodetypes="scsscscsscsscsscscsscs" />
</svg>
