<?xml version="1.0" encoding="UTF-8" standalone="no"?>
<svg
   height="40px"
   viewBox="0 -960 960 960"
   width="40px"
   fill="#e3e3e3"
   version="1.1"
   id="svg1"
   sodipodi:docname="player_status_ring.svg"
   inkscape:version="1.4.2 (ebf0e940d0, 2025-05-08)"
   xmlns:inkscape="http://www.inkscape.org/namespaces/inkscape"
   xmlns:sodipodi="http://sodipodi.sourceforge.net/DTD/sodipodi-0.dtd"
   xmlns="http://www.w3.org/2000/svg"
   xmlns:svg="http://www.w3.org/2000/svg">
  <defs
     id="defs1" />
  <sodipodi:namedview
     id="namedview1"
     pagecolor="#ffffff"
     bordercolor="#000000"
     borderopacity="0.25"
     inkscape:showpageshadow="2"
     inkscape:pageopacity="0.0"
     inkscape:pagecheckerboard="0"
     inkscape:deskcolor="#d1d1d1"
     inkscape:zoom="19.825"
     inkscape:cx="19.974779"
     inkscape:cy="20"
     inkscape:window-width="1920"
     inkscape:window-height="1004"
     inkscape:window-x="0"
     inkscape:window-y="0"
     inkscape:window-maximized="1"
     inkscape:current-layer="svg1" />
  <path
     d="m 480,-80 c -54.88667,0 -106.66333,-10.5 -155.33,-31.5 -48.66667,-21 -91.11333,-49.61 -127.34,-85.83 C 161.11,-233.55667 132.5,-276.00333 111.5,-324.67 90.5,-373.33667 80,-425.11333 80,-480 c 0,-55.33333 10.5,-107.33333 31.5,-156 21,-48.66667 49.61,-91 85.83,-127 36.22667,-36 78.67333,-64.5 127.34,-85.5 48.66667,-21 100.44333,-31.5 155.33,-31.5 55.33333,0 107.33333,10.5 156,31.5 48.66667,21 91,49.5 127,85.5 36,36 64.5,78.33333 85.5,127 21,48.66667 31.5,100.66667 31.5,156 0,54.88667 -10.5,106.66333 -31.5,155.33 -21,48.66667 -49.5,91.11333 -85.5,127.34 -36,36.22 -78.33333,64.83 -127,85.83 -48.66667,21 -100.66667,31.5 -156,31.5 z m 0,-66.67 c 92.88667,0 171.66333,-32.44333 236.33,-97.33 64.66667,-64.88667 97,-143.55333 97,-236 0,-92.88667 -32.33333,-171.66333 -97,-236.33 -64.66667,-64.66667 -143.44333,-97 -236.33,-97 -92.44667,0 -171.11333,32.33333 -236,97 -64.88667,64.66667 -97.33,143.44333 -97.33,236.33 0,92.44667 32.44333,171.11333 97.33,236 64.88667,64.88667 143.55333,97.33 236,97.33 z"
     id="path1"
     sodipodi:nodetypes="sscssscssssssscsssssssssss" />
</svg>
