<?xml version="1.0" encoding="UTF-8" standalone="no"?>
<svg
   height="48px"
   viewBox="0 -960 960 960"
   width="48px"
   fill="#e3e3e3"
   version="1.1"
   id="svg1"
   sodipodi:docname="volume_overlay_1.svg"
   inkscape:version="1.4.2 (ebf0e940d0, 2025-05-08)"
   xmlns:inkscape="http://www.inkscape.org/namespaces/inkscape"
   xmlns:sodipodi="http://sodipodi.sourceforge.net/DTD/sodipodi-0.dtd"
   xmlns="http://www.w3.org/2000/svg"
   xmlns:svg="http://www.w3.org/2000/svg">
  <defs
     id="defs1" />
  <sodipodi:namedview
     id="namedview1"
     pagecolor="#ffffff"
     bordercolor="#000000"
     borderopacity="0.25"
     inkscape:showpageshadow="2"
     inkscape:pageopacity="0.0"
     inkscape:pagecheckerboard="0"
     inkscape:deskcolor="#d1d1d1"
     inkscape:zoom="16.520833"
     inkscape:cx="24.030265"
     inkscape:cy="24"
     inkscape:window-width="1920"
     inkscape:window-height="1004"
     inkscape:window-x="0"
     inkscape:window-y="0"
     inkscape:window-maximized="1"
     inkscape:current-layer="svg1" />
  <path
     d="M 280,-360 H 150 c -8.66667,0 -15.83333,-2.83333 -21.5,-8.5 -5.66667,-5.66667 -8.5,-12.83333 -8.5,-21.5 v -180 c 0,-8.66667 2.83333,-15.83333 8.5,-21.5 5.66667,-5.66667 12.83333,-8.5 21.5,-8.5 h 130 l 149,-149 c 9.33333,-9.33333 20.16667,-11.5 32.5,-6.5 12.33333,5 18.5,14.16667 18.5,27.5 v 496 c 0,13.33333 -6.16667,22.5 -18.5,27.5 -12.33333,5 -23.16667,2.83333 -32.5,-6.5 z M 420,-648 307,-540 H 180 v 120 h 127 l 113,109 z"
     id="path1"
     sodipodi:nodetypes="csssssscsssssscccccccc" />
</svg>
