<?xml version="1.0" encoding="UTF-8" standalone="no"?>
<svg
   height="40px"
   viewBox="0 -960 960 960"
   width="40px"
   fill="#e3e3e3"
   version="1.1"
   id="svg1"
   sodipodi:docname="volume_layer_0.svg"
   inkscape:version="1.4.2 (ebf0e940d0, 2025-05-08)"
   xmlns:inkscape="http://www.inkscape.org/namespaces/inkscape"
   xmlns:sodipodi="http://sodipodi.sourceforge.net/DTD/sodipodi-0.dtd"
   xmlns="http://www.w3.org/2000/svg"
   xmlns:svg="http://www.w3.org/2000/svg">
  <defs
     id="defs1" />
  <sodipodi:namedview
     id="namedview1"
     pagecolor="#ffffff"
     bordercolor="#000000"
     borderopacity="0.25"
     inkscape:showpageshadow="2"
     inkscape:pageopacity="0.0"
     inkscape:pagecheckerboard="0"
     inkscape:deskcolor="#d1d1d1"
     inkscape:zoom="24.7"
     inkscape:cx="20.647773"
     inkscape:cy="19.008097"
     inkscape:window-width="1906"
     inkscape:window-height="988"
     inkscape:window-x="0"
     inkscape:window-y="0"
     inkscape:window-maximized="1"
     inkscape:current-layer="svg1" />
  <path
     d="M 280,-360 H 153.33 c -9.55333,0 -17.49667,-3.16667 -23.83,-9.5 -6.33333,-6.33333 -9.5,-14.27667 -9.5,-23.83 v -173.34 c 0,-9.55333 3.16667,-17.49667 9.5,-23.83 6.33333,-6.33333 14.27667,-9.5 23.83,-9.5 H 280 l 143.33,-143.33 c 10.44667,-10.44667 22.50333,-12.83667 36.17,-7.17 13.66667,5.66667 20.5,15.94333 20.5,30.83 v 479.34 c 0,14.88667 -6.83333,25.16333 -20.5,30.83 -13.66667,5.66667 -25.72333,3.27667 -36.17,-7.17 z m 133.33,-274 -104,100.67 H 186.67 v 106.66 h 122.66 l 104,101.34 z"
     id="path1"
     sodipodi:nodetypes="csssssscsssssscccccccc" />
</svg>
