<?xml version="1.0" encoding="UTF-8" standalone="no"?>
<svg
   height="40px"
   viewBox="0 -960 960 960"
   width="40px"
   fill="#e3e3e3"
   version="1.1"
   id="svg1"
   sodipodi:docname="volume_layer_2.svg"
   inkscape:version="1.4.2 (ebf0e940d0, 2025-05-08)"
   xmlns:inkscape="http://www.inkscape.org/namespaces/inkscape"
   xmlns:sodipodi="http://sodipodi.sourceforge.net/DTD/sodipodi-0.dtd"
   xmlns="http://www.w3.org/2000/svg"
   xmlns:svg="http://www.w3.org/2000/svg">
  <defs
     id="defs1" />
  <sodipodi:namedview
     id="namedview1"
     pagecolor="#ffffff"
     bordercolor="#000000"
     borderopacity="0.25"
     inkscape:showpageshadow="2"
     inkscape:pageopacity="0.0"
     inkscape:pagecheckerboard="0"
     inkscape:deskcolor="#d1d1d1"
     inkscape:zoom="24.7"
     inkscape:cx="20.647773"
     inkscape:cy="19.008097"
     inkscape:window-width="1906"
     inkscape:window-height="988"
     inkscape:window-x="0"
     inkscape:window-y="0"
     inkscape:window-maximized="1"
     inkscape:current-layer="svg1" />
  <path
     d="m 773.33,-481 c 0,-60.22 -16.55333,-114.61 -49.66,-163.17 -33.11333,-48.55333 -76.78,-84.16333 -131,-106.83 -8.66667,-3.78 -14.89,-9.72333 -18.67,-17.83 -3.78,-8.11333 -4.00333,-16.28 -0.67,-24.5 3.56,-8.89333 9.84,-15.11667 18.84,-18.67 9,-3.55333 18.16667,-3.44333 27.5,0.33 66.44,27.78 119.77333,71.50333 160,131.17 40.22,59.66667 60.33,126.16667 60.33,199.5 0,73.33333 -20.11,139.83333 -60.33,199.5 -40.22667,59.66667 -93.56,103.39 -160,131.17 -9.33333,3.77333 -18.5,3.88333 -27.5,0.33 -9,-3.55333 -15.28,-9.77667 -18.84,-18.67 -3.33333,-8.22 -3.11,-16.38667 0.67,-24.5 3.78,-8.10667 10.00333,-14.05 18.67,-17.83 54.22,-22.66667 97.88667,-58.27667 131,-106.83 33.10667,-48.56 49.66,-102.95 49.66,-163.17 z"
     id="path1"
     sodipodi:nodetypes="sccccsccsccsccccs" />
</svg>
