<?xml version="1.0" encoding="UTF-8" standalone="no"?>
<svg
   height="48px"
   viewBox="0 -960 960 960"
   width="48px"
   fill="#e3e3e3"
   version="1.1"
   id="svg1"
   sodipodi:docname="volume_overlay_2.svg"
   inkscape:version="1.4.2 (ebf0e940d0, 2025-05-08)"
   xmlns:inkscape="http://www.inkscape.org/namespaces/inkscape"
   xmlns:sodipodi="http://sodipodi.sourceforge.net/DTD/sodipodi-0.dtd"
   xmlns="http://www.w3.org/2000/svg"
   xmlns:svg="http://www.w3.org/2000/svg">
  <defs
     id="defs1" />
  <sodipodi:namedview
     id="namedview1"
     pagecolor="#ffffff"
     bordercolor="#000000"
     borderopacity="0.25"
     inkscape:showpageshadow="2"
     inkscape:pageopacity="0.0"
     inkscape:pagecheckerboard="0"
     inkscape:deskcolor="#d1d1d1"
     inkscape:zoom="16.520833"
     inkscape:cx="24.030265"
     inkscape:cy="24"
     inkscape:window-width="1920"
     inkscape:window-height="1004"
     inkscape:window-x="0"
     inkscape:window-y="0"
     inkscape:window-maximized="1"
     inkscape:current-layer="svg1" />
  <path
     d="m 780,-481 c 0,-62.66667 -17.5,-119 -52.5,-169 -35,-50 -80.83333,-86.33333 -137.5,-109 -8,-3.33333 -13.66667,-8.66667 -17,-16 -3.33333,-7.33333 -3.33333,-14.66667 0,-22 3.33333,-8 9.16667,-13.5 17.5,-16.5 8.33333,-3 16.83333,-2.83333 25.5,0.5 67.33333,27.33333 121.5,71 162.5,131 41,60 61.5,127 61.5,201 0,74 -20.5,141 -61.5,201 -41,60 -95.16667,103.66667 -162.5,131 -8.66667,3.33333 -17.16667,3.5 -25.5,0.5 -8.33333,-3 -14.16667,-8.5 -17.5,-16.5 -3.33333,-7.33333 -3.33333,-14.66667 0,-22 3.33333,-7.33333 9,-12.66667 17,-16 56.66667,-22.66667 102.5,-59 137.5,-109 35,-50 52.5,-106.33333 52.5,-169 z"
     id="path1"
     sodipodi:nodetypes="sscscscssscscscss" />
</svg>
